<!DOCTYPE svg PUBLIC "-//W3C//DTD SVG 1.1//EN" "http://www.w3.org/Graphics/SVG/1.1/DTD/svg11.dtd">
<!-- Uploaded to: SVG Repo, www.svgrepo.com, Transformed by: SVG Repo Mixer Tools -->
<svg fill="#f012be" width="800px" height="800px" viewBox="-2.4 -2.4 28.80 28.80" xmlns="http://www.w3.org/2000/svg" stroke="#f012be" stroke-width="0.00024000000000000003">
<g id="SVGRepo_bgCarrier" stroke-width="0"/>
<g id="SVGRepo_tracerCarrier" stroke-linecap="round" stroke-linejoin="round"/>
<g id="SVGRepo_iconCarrier">
<path d="M19,14a1,1,0,0,0,.949-.684l2-6A1,1,0,0,0,21,6H7V2A1,1,0,0,0,6,1H3A1,1,0,0,0,3,3H5V17a1,1,0,0,0,1,1H18a1,1,0,0,0,0-2H7V14ZM7,8H19.613l-1.334,4H7ZM6.5,19A1.5,1.5,0,1,1,5,20.5,1.5,1.5,0,0,1,6.5,19Zm10,0A1.5,1.5,0,1,1,15,20.5,1.5,1.5,0,0,1,16.5,19Z"/>
</g>
</svg>